<?xml version="1.0" encoding="UTF-8"?>
<svg version="1.1" xmlns="http://www.w3.org/2000/svg" width="123" height="122">
<path d="M0 0 C1.65 0 3.3 0 5 0 C8.28571429 8.42857143 8.28571429 8.42857143 9 13 C10.32 13 11.64 13 13 13 C13.33 12.01 13.66 11.02 14 10 C15.875 10.1875 15.875 10.1875 18 11 C19.125 13.4375 19.125 13.4375 20 16 C20.66 16.66 21.32 17.32 22 18 C22.125 21.125 22.125 21.125 22 24 C22.66 23.34 23.32 22.68 24 22 C23.67 21.67 23.34 21.34 23 21 C22.7746669 18.9720021 22.55232815 16.94325126 22.37890625 14.91015625 C22.13777773 12.7671052 22.13777773 12.7671052 20 11 C20.36276645 8.17042171 21.09694764 5.70915709 22 3 C23.32 3 24.64 3 26 3 C26.0825 3.9075 26.165 4.815 26.25 5.75 C26.70508503 9.06541789 26.70508503 9.06541789 29 10.9375 C31.73278845 13.75568809 31.70588134 16.17645738 32 20 C33.65 20.66 35.3 21.32 37 22 C36.649375 20.989375 36.29875 19.97875 35.9375 18.9375 C33.93363482 11.75818447 36.53777703 6.19979462 40 0 C41.32 0.33 42.64 0.66 44 1 C44.19622241 5.21878192 43.80230168 8.17010894 42 12 C42.99 12.99 42.99 12.99 44 14 C44.33 12.35 44.66 10.7 45 9 C46.32 9 47.64 9 49 9 C49.495 12.465 49.495 12.465 50 16 C50.99 15.67 51.98 15.34 53 15 C52.42655063 12.13275314 52.1385485 11.1385485 50 9 C50 7.68 50 6.36 50 5 C51.65 5.33 53.3 5.66 55 6 C55.495 7.485 55.495 7.485 56 9 C56.99 9.4640625 56.99 9.4640625 58 9.9375 C60 11 60 11 61 12.875 C61 15 61 15 59.5 16.875 C58.2625 17.926875 58.2625 17.926875 57 19 C56.39671875 19.52335937 55.7934375 20.04671875 55.171875 20.5859375 C53.45810233 22.06981384 51.73346073 23.53921848 50 25 C50.99 24.34 51.98 23.68 53 23 C57.56110596 20.96743892 62.02873046 19.62140869 67 19 C66.88140625 18.45472656 66.7628125 17.90945312 66.640625 17.34765625 C65.52576736 10.82573905 66.84004668 6.73673929 70 1 C71.32 1.33 72.64 1.66 74 2 C73.79375 3.03125 73.5875 4.0625 73.375 5.125 C72.98805597 9.1234216 73.48116924 11.33693757 75 15 C77.97 14.505 77.97 14.505 81 14 C79.94948513 18.71681178 78.43633561 22.51506975 75 26 C71.67510862 27.60682483 68.38516599 28.78970444 64.86328125 29.89453125 C61.72315996 30.79080522 61.72315996 30.79080522 60 34 C60.556875 33.67 61.11375 33.34 61.6875 33 C64.30284522 31.8690399 66.1806646 31.84337026 69 32 C69.22036864 35.85645121 68.60355101 38.49223216 67 42 C68.92846635 41.80585783 68.92846635 41.80585783 71 41 C72.45848917 38.99457739 73.5129689 36.91256993 74.65625 34.71484375 C75.0996875 34.14894531 75.543125 33.58304688 76 33 C77.32 33 78.64 33 80 33 C80.02578125 33.65226562 80.0515625 34.30453125 80.078125 34.9765625 C80.45516815 40.78645463 81.24550913 44.33532952 85 49 C85.66 49.99 86.32 50.98 87 52 C85.3125 52.6875 85.3125 52.6875 83 53 C82.195625 52.505 81.39125 52.01 80.5625 51.5 C78.14865753 49.74712267 78.14865753 49.74712267 75.625 50.25 C74.75875 50.4975 73.8925 50.745 73 51 C70.66822025 51.34403308 68.33512959 51.67949202 66 52 C66.82767425 54.21473518 66.82767425 54.21473518 69.1875 54.8515625 C75.36265893 56.54973121 80.60930319 57.20287926 87 57 C87.66 57.33 88.32 57.66 89 58 C89 59.32 89 60.64 89 62 C84.21222483 63.62784356 80.92096731 64.31225795 76 63 C75.278125 62.62875 74.55625 62.2575 73.8125 61.875 C71.84359635 60.66479088 71.84359635 60.66479088 69 62 C69 63.32 69 64.64 69 66 C72.38328872 68.25552581 73.12796754 68.11788351 77 67.8125 C79.69140625 67.74609375 79.69140625 67.74609375 82 68 C83.9375 70.375 83.9375 70.375 85 73 C86.485 73.99 86.485 73.99 88 75 C88 76.32 88 77.64 88 79 C85.6875 79.25 85.6875 79.25 83 79 C82.566875 78.34 82.13375 77.68 81.6875 77 C80.21950332 74.806474 80.21950332 74.806474 78.0390625 74.734375 C76.02414499 74.74851477 74.01064894 74.86815417 72 75 C72.5053125 75.37511719 73.010625 75.75023438 73.53125 76.13671875 C74.1809375 76.64847656 74.830625 77.16023438 75.5 77.6875 C76.1496875 78.18636719 76.799375 78.68523437 77.46875 79.19921875 C79.49844602 81.58618269 79.07349001 82.92719893 79 86 C80.05955122 88.60968125 80.05955122 88.60968125 81.5 91.125 C84 95.69444444 84 95.69444444 84 99 C82.515 99.495 82.515 99.495 81 100 C81.495 100.4125 81.99 100.825 82.5 101.25 C84 103 84 103 84 107 C76.14546873 105.07341686 76.14546873 105.07341686 74 102 C73.77734375 99.0390625 73.77734375 99.0390625 73.9375 95.625 C74.23435783 89.53226729 74.23435783 89.53226729 72 84 C69.48728874 82.82026328 69.48728874 82.82026328 66.5625 82.3125 C63.0230369 81.54428098 61.06009917 81.04006611 58 79 C61.42291759 82.63492523 61.42291759 82.63492523 65.59375 85.30078125 C68 87 68 87 68.92578125 89.7421875 C69.05339844 90.77601562 69.18101563 91.80984375 69.3125 92.875 C69.45300781 93.90367188 69.59351562 94.93234375 69.73828125 95.9921875 C69.97243225 98.68317662 70.0547741 101.30113051 70 104 C66.73045798 103.43628586 65.17424117 102.50037734 63 100 C63.23752667 103.20661003 64.12654435 104.12021713 66.5 106.375 C69.84447566 109.02779578 73.47127862 111.2091961 77.14453125 113.375 C79.50085884 115.4386469 79.68521661 116.94505305 80 120 C75.77345256 119.53038362 73.90080046 119.03265502 71 116 C67.88742431 116 65.89234315 116.17361624 63 117 C62.5875 115.948125 62.175 114.89625 61.75 113.8125 C60.6434397 111.17052111 59.74938006 109.71357721 57.8125 107.5 C55.36650438 104.12621293 55.56917615 102.09282658 56 98 C57 94.5625 57 94.5625 58 92 C56.68 90.68 55.36 89.36 54 88 C53.505 89.485 53.505 89.485 53 91 C52.34 91 51.68 91 51 91 C51.22816406 91.51949219 51.45632812 92.03898437 51.69140625 92.57421875 C53.41048304 96.74471445 54.53562136 99.53273787 53 104 C51.515 104.495 51.515 104.495 50 105 C49.67 107.31 49.34 109.62 49 112 C47.35 111.67 45.7 111.34 44 111 C44.03480469 110.16855469 44.06960937 109.33710937 44.10546875 108.48046875 C44.14607422 106.85044922 44.14607422 106.85044922 44.1875 105.1875 C44.22230469 104.10855469 44.25710937 103.02960938 44.29296875 101.91796875 C44.26536952 98.98051156 44.26536952 98.98051156 42.48828125 97.11328125 C41.99714844 96.74589844 41.50601563 96.37851563 41 96 C40.505 97.485 40.505 97.485 40 99 C37.83125748 98.49396008 36.00032373 98.00016187 34 97 C33.58013054 99.28836222 33.58013054 99.28836222 34 102 C35.2684375 103.2375 35.2684375 103.2375 36.5625 104.5 C37.366875 105.325 38.17125 106.15 39 107 C38.90907641 110.63694341 37.34054615 113.64863462 36 117 C35.63128912 118.65919896 35.28718326 120.3247643 35 122 C33.02 121.505 33.02 121.505 31 121 C29.71428571 113.57142857 29.71428571 113.57142857 31 110 C30.05125 109.54625 29.1025 109.0925 28.125 108.625 C25 107 25 107 23 105 C22.01 105.495 22.01 105.495 21 106 C21.20625 107.19625 21.4125 108.3925 21.625 109.625 C22.13581838 113.5576018 21.56734717 116.3121243 20 120 C18.68 120 17.36 120 16 120 C15.80083984 119.07767578 15.80083984 119.07767578 15.59765625 118.13671875 C15.42105469 117.32847656 15.24445312 116.52023438 15.0625 115.6875 C14.88847656 114.88699219 14.71445312 114.08648437 14.53515625 113.26171875 C14.00113841 110.854599 14.00113841 110.854599 13 108 C13.77734375 106.0625 13.77734375 106.0625 14.9375 104 C16.46769739 101.26120603 17 100.22224436 17 97 C14.36 99.31 11.72 101.62 9 104 C9.4125 105.2375 9.825 106.475 10.25 107.75 C10.8125 109.96875 10.8125 109.96875 11 112 C9.25 114.25 9.25 114.25 7 116 C5.76487921 118.13309192 5.76487921 118.13309192 5 120 C4.01 119.67 3.02 119.34 2 119 C1.875 113.25 1.875 113.25 3 111 C1.35 111 -0.3 111 -2 111 C-1.67 108.36 -1.34 105.72 -1 103 C-2.485 103.99 -2.485 103.99 -4 105 C-5.155 105.0825 -6.31 105.165 -7.5 105.25 C-8.655 105.4975 -9.81 105.745 -11 106 C-13.01041003 108.93449408 -13.01041003 108.93449408 -14 112 C-15.65 112 -17.3 112 -19 112 C-19 111.34 -19 110.68 -19 110 C-19.66 110 -20.32 110 -21 110 C-20.67 108.02 -20.34 106.04 -20 104 C-21.65 103.67 -23.3 103.34 -25 103 C-24.125 99.125 -24.125 99.125 -23 98 C-21.42242496 97.67864212 -19.83755714 97.39272413 -18.25 97.125 C-14.29041664 96.37052351 -11.25757113 95.4974712 -8 93 C-8 92.67 -8 92.34 -8 92 C-9.65 91.67 -11.3 91.34 -13 91 C-11.97895872 88.53248357 -11.2325011 87.17250081 -9.0625 85.5625 C-5.08864539 82.55200409 -3.68968833 78.82781834 -3 74 C-8.82917839 75.30360756 -8.82917839 75.30360756 -12.69140625 79.61328125 C-13.67104204 81.5853418 -14.60316091 83.58189914 -15.48046875 85.6015625 C-17 88 -17 88 -19.67578125 88.8359375 C-20.44277344 88.89007813 -21.20976562 88.94421875 -22 89 C-22 87.68 -22 86.36 -22 85 C-23.32 84.67 -24.64 84.34 -26 84 C-25.75 82.125 -25.75 82.125 -25 80 C-24.35933594 79.74089844 -23.71867187 79.48179688 -23.05859375 79.21484375 C-20.750144 78.13695698 -20.750144 78.13695698 -19.98828125 75.43359375 C-19.65376953 73.95052734 -19.65376953 73.95052734 -19.3125 72.4375 C-18.06101695 67.06101695 -18.06101695 67.06101695 -17 66 C-12.83535074 65.83982118 -9.05273808 66.01751804 -5 67 C-5 64.69 -5 62.38 -5 60 C-10.445 60.495 -10.445 60.495 -16 61 C-16.33 61.99 -16.66 62.98 -17 64 C-19.46369532 65.23184766 -21.1894501 65.16732342 -23.9375 65.1875 C-24.81277344 65.20167969 -25.68804688 65.21585937 -26.58984375 65.23046875 C-29 65 -29 65 -32 63 C-31.67 62.01 -31.34 61.02 -31 60 C-30.07767578 60.08701172 -30.07767578 60.08701172 -29.13671875 60.17578125 C-26.67395447 60.31325613 -24.44139232 60.36924973 -22 60 C-19.99135641 57.6273026 -19.99135641 57.6273026 -19 55 C-18.34 55 -17.68 55 -17 55 C-17 54.34 -17 53.68 -17 53 C-17.58007812 53.20238281 -18.16015625 53.40476563 -18.7578125 53.61328125 C-24.99388899 55.45529064 -24.99388899 55.45529064 -27.93359375 54.125 C-29.5625 52.8125 -29.5625 52.8125 -32 50 C-32 49.01 -32 48.02 -32 47 C-31.40832031 47.08378906 -30.81664062 47.16757812 -30.20703125 47.25390625 C-29.41683594 47.35574219 -28.62664063 47.45757812 -27.8125 47.5625 C-27.03519531 47.66691406 -26.25789063 47.77132812 -25.45703125 47.87890625 C-22.98045984 48.10697147 -22.98045984 48.10697147 -20.53125 47.46875 C-17.6033745 46.92655083 -15.5786722 47.28216763 -12.6875 47.9375 C-11.80449219 48.13214844 -10.92148437 48.32679687 -10.01171875 48.52734375 C-9.01591797 48.76130859 -9.01591797 48.76130859 -8 49 C-9.74964674 44.01663033 -9.74964674 44.01663033 -13 40 C-15.00239495 39.96770331 -17.00760124 39.9440572 -19.0078125 40.04296875 C-23.01862403 39.95646105 -25.41424465 37.50659922 -28.3125 35 C-30 33 -30 33 -30 30 C-28.741875 30.12375 -27.48375 30.2475 -26.1875 30.375 C-25.47980469 30.44460937 -24.77210937 30.51421875 -24.04296875 30.5859375 C-22 31 -22 31 -19 33 C-17.7625 32.938125 -16.525 32.87625 -15.25 32.8125 C-10.20403059 32.63495663 -7.78663483 34.84447098 -4 38 C-3.67 37.67 -3.34 37.34 -3 37 C-3 36.34 -3 35.68 -3 35 C-2.34 35 -1.68 35 -1 35 C-1.33 33.02 -1.66 31.04 -2 29 C-3.46373047 28.83564453 -3.46373047 28.83564453 -4.95703125 28.66796875 C-6.86548828 28.43013672 -6.86548828 28.43013672 -8.8125 28.1875 C-10.07707031 28.03667969 -11.34164063 27.88585937 -12.64453125 27.73046875 C-15.93462929 27.01423088 -17.13207333 26.721836 -19 24 C-19.6875 21.3125 -19.6875 21.3125 -20 19 C-20.90492187 18.83564453 -20.90492187 18.83564453 -21.828125 18.66796875 C-29.76625659 17.09314587 -29.76625659 17.09314587 -33 14 C-32.67 13.01 -32.34 12.02 -32 11 C-29.87465341 11.14069196 -27.74972471 11.28770921 -25.625 11.4375 C-24.44164062 11.51871094 -23.25828125 11.59992187 -22.0390625 11.68359375 C-19 12 -19 12 -17 13 C-17 11.68 -17 10.36 -17 9 C-13.125 9.875 -13.125 9.875 -12 11 C-11.95875 12.11375 -11.9175 13.2275 -11.875 14.375 C-11.43277886 17.96486988 -11.43277886 17.96486988 -9.37890625 19.12890625 C-7.21881379 20.0645513 -7.21881379 20.0645513 -4 21 C-4 20.34 -4 19.68 -4 19 C1.29877676 18.49535459 3.90716575 19.63478073 8 23 C9.875 25.75 9.875 25.75 11 28 C11.0587946 25.17785932 11.02071733 23.58842193 10 21 C7.81000268 18.77217163 5.51429685 16.88590361 3.03125 14.9921875 C0.10856898 12.12571189 0.0746436 9.71083129 -0.09765625 5.76171875 C-0.06510417 3.84114583 -0.03255208 1.92057292 0 0 Z M45 15 C44.67 16.98 44.34 18.96 44 21 C44.66 20.67 45.32 20.34 46 20 C46 18.35 46 16.7 46 15 C45.67 15 45.34 15 45 15 Z M9 37 C8.67 38.32 8.34 39.64 8 41 C9.32 41.33 10.64 41.66 12 42 C12.33 40.68 12.66 39.36 13 38 C11.68 37.67 10.36 37.34 9 37 Z M18 37 C17.67 38.32 17.34 39.64 17 41 C18.32 41.33 19.64 41.66 21 42 C21.33 40.68 21.66 39.36 22 38 C20.68 37.67 19.36 37.34 18 37 Z M27 37 C27 38.65 27 40.3 27 42 C28.32 42 29.64 42 31 42 C31.33 41.01 31.66 40.02 32 39 C31.67 38.34 31.34 37.68 31 37 C29.68 37 28.36 37 27 37 Z M37 37 C36.67 38.32 36.34 39.64 36 41 C37.32 41.33 38.64 41.66 40 42 C40.33 40.68 40.66 39.36 41 38 C39.68 37.67 38.36 37.34 37 37 Z M46 37 C45.67 37.99 45.34 38.98 45 40 C45.33 40.66 45.66 41.32 46 42 C47.32 42 48.64 42 50 42 C50 40.35 50 38.7 50 37 C48.68 37 47.36 37 46 37 Z M9 46 C8.67 47.65 8.34 49.3 8 51 C9.32 51 10.64 51 12 51 C12 49.68 12 48.36 12 47 C11.01 46.67 10.02 46.34 9 46 Z M19 46 C18.34 47.32 17.68 48.64 17 50 C18.98 50.99 18.98 50.99 21 52 C21.33 50.35 21.66 48.7 22 47 C21.01 46.67 20.02 46.34 19 46 Z M28 46 C27.67 47.65 27.34 49.3 27 51 C28.32 51 29.64 51 31 51 C31 49.68 31 48.36 31 47 C30.01 46.67 29.02 46.34 28 46 Z M37 46 C36.67 47.65 36.34 49.3 36 51 C37.32 51.33 38.64 51.66 40 52 C40.33 50.35 40.66 48.7 41 47 C39.68 46.67 38.36 46.34 37 46 Z M47 46 C46.34 47.32 45.68 48.64 45 50 C46.98 50.99 46.98 50.99 49 52 C49.33 50.35 49.66 48.7 50 47 C49.01 46.67 48.02 46.34 47 46 Z M9 56 C8.67 57.32 8.34 58.64 8 60 C9.32 60.33 10.64 60.66 12 61 C12.33 59.68 12.66 58.36 13 57 C11.68 56.67 10.36 56.34 9 56 Z M18 56 C17.67 57.32 17.34 58.64 17 60 C18.32 60.33 19.64 60.66 21 61 C21.33 59.68 21.66 58.36 22 57 C20.68 56.67 19.36 56.34 18 56 Z M27 56 C27 57.65 27 59.3 27 61 C28.32 61 29.64 61 31 61 C31.33 60.01 31.66 59.02 32 58 C31.67 57.34 31.34 56.68 31 56 C29.68 56 28.36 56 27 56 Z M37 56 C36.67 57.32 36.34 58.64 36 60 C37.32 60.33 38.64 60.66 40 61 C40.33 59.68 40.66 58.36 41 57 C39.68 56.67 38.36 56.34 37 56 Z M46 56 C45.67 56.99 45.34 57.98 45 59 C45.33 59.66 45.66 60.32 46 61 C47.32 61 48.64 61 50 61 C50 59.35 50 57.7 50 56 C48.68 56 47.36 56 46 56 Z M9 65 C8.67 66.65 8.34 68.3 8 70 C9.32 70 10.64 70 12 70 C12 68.68 12 67.36 12 66 C11.01 65.67 10.02 65.34 9 65 Z M19 65 C18.34 66.32 17.68 67.64 17 69 C18.98 69.99 18.98 69.99 21 71 C21.33 69.35 21.66 67.7 22 66 C21.01 65.67 20.02 65.34 19 65 Z M28 65 C27.67 66.65 27.34 68.3 27 70 C28.32 70 29.64 70 31 70 C31 68.68 31 67.36 31 66 C30.01 65.67 29.02 65.34 28 65 Z M37 65 C36.67 66.65 36.34 68.3 36 70 C37.32 70.33 38.64 70.66 40 71 C40.33 69.35 40.66 67.7 41 66 C39.68 65.67 38.36 65.34 37 65 Z M47 65 C46.34 66.32 45.68 67.64 45 69 C46.98 69.99 46.98 69.99 49 71 C49.33 69.35 49.66 67.7 50 66 C49.01 65.67 48.02 65.34 47 65 Z M9 75 C8.67 76.32 8.34 77.64 8 79 C9.32 79.33 10.64 79.66 12 80 C12.33 78.68 12.66 77.36 13 76 C11.68 75.67 10.36 75.34 9 75 Z M18 75 C17.67 76.32 17.34 77.64 17 79 C18.32 79.33 19.64 79.66 21 80 C21.33 78.68 21.66 77.36 22 76 C20.68 75.67 19.36 75.34 18 75 Z M27 75 C27 76.65 27 78.3 27 80 C28.32 80 29.64 80 31 80 C31.33 79.01 31.66 78.02 32 77 C31.67 76.34 31.34 75.68 31 75 C29.68 75 28.36 75 27 75 Z M37 75 C36.67 76.32 36.34 77.64 36 79 C37.32 79.33 38.64 79.66 40 80 C40.33 78.68 40.66 77.36 41 76 C39.68 75.67 38.36 75.34 37 75 Z M46 75 C45.67 75.99 45.34 76.98 45 78 C45.33 78.66 45.66 79.32 46 80 C47.32 80 48.64 80 50 80 C50 78.35 50 76.7 50 75 C48.68 75 47.36 75 46 75 Z M5 89 C2.3183856 90.39089037 2.3183856 90.39089037 0 93 C-0.4451258 96.04256578 -0.29359745 98.9465865 0 102 C1.32176485 101.09674384 2.63215066 100.17682097 3.9375 99.25 C4.66839844 98.73953125 5.39929687 98.2290625 6.15234375 97.703125 C8.20805399 95.80822085 8.62669176 94.72574271 9 92 C8.01 91.67 7.02 91.34 6 91 C5.67 90.34 5.34 89.68 5 89 Z " fill="#ECEBE4" transform="translate(34,0)"/>
<path d="M0 0 C0.33 0.66 0.66 1.32 1 2 C-0.43257963 4.72872311 -1.81722366 6.81722366 -4 9 C-3.01 9.66 -2.02 10.32 -1 11 C-1.33 12.32 -1.66 13.64 -2 15 C-3.32 15.33 -4.64 15.66 -6 16 C-5.01 14.68 -4.02 13.36 -3 12 C-4.65 11.67 -6.3 11.34 -8 11 C-6.57847097 7.56463819 -4.92739556 6.19554667 -2 4 C-0.7483533 1.91665365 -0.7483533 1.91665365 0 0 Z " fill="#E2E1D0" transform="translate(29,80)"/>
<path d="M0 0 C1.32 0 2.64 0 4 0 C4.33 2.31 4.66 4.62 5 7 C4.34 7 3.68 7 3 7 C2.67 8.32 2.34 9.64 2 11 C1.67 11 1.34 11 1 11 C0.67 7.37 0.34 3.74 0 0 Z " fill="#CDCBC7" transform="translate(79,9)"/>
<path d="M0 0 C2.0625 0.4375 2.0625 0.4375 4 1 C4.19881516 5.27452603 3.63295075 8.08091821 2 12 C2.33 12.66 2.66 13.32 3 14 C2.01 13.67 1.02 13.34 0 13 C0.66666667 9.66666667 1.33333333 6.33333333 2 3 C0.68 4.32 -0.64 5.64 -2 7 C-1.125 1.125 -1.125 1.125 0 0 Z " fill="#CBC9B7" transform="translate(74,0)"/>
<path d="M0 0 C1.32 0 2.64 0 4 0 C3.67 1.65 3.34 3.3 3 5 C1.35 5.33 -0.3 5.66 -2 6 C-1.125 1.125 -1.125 1.125 0 0 Z " fill="#D4D3C3" transform="translate(16,2)"/>
<path d="M0 0 C1.65 0 3.3 0 5 0 C5.33 1.32 5.66 2.64 6 4 C4.125 4.625 4.125 4.625 2 5 C1.34 4.34 0.68 3.68 0 3 C0 2.01 0 1.02 0 0 Z " fill="#D3D3BE" transform="translate(18,115)"/>
<path d="M0 0 C2.0625 0.4375 2.0625 0.4375 4 1 C3.67 2.65 3.34 4.3 3 6 C2.01 6 1.02 6 0 6 C-0.38218767 4.34385343 -0.71395102 2.67542976 -1 1 C-0.67 0.67 -0.34 0.34 0 0 Z " fill="#D8D5BC" transform="translate(80,113)"/>
<path d="M0 0 C0.66 0.33 1.32 0.66 2 1 C1.25 5.75 1.25 5.75 -1 8 C-1.99 8.33 -2.98 8.66 -4 9 C-2.80100302 5.9168649 -1.52299523 2.93720508 0 0 Z " fill="#F7F7F1" transform="translate(75,2)"/>
<path d="M0 0 C2 2 2 2 2.1953125 4.3828125 C2.17210937 5.28773437 2.14890625 6.19265625 2.125 7.125 C2.10695312 8.03507812 2.08890625 8.94515625 2.0703125 9.8828125 C2.03550781 10.93082031 2.03550781 10.93082031 2 12 C0 11 0 11 -1 8 C-1.125 4.375 -1.125 4.375 -1 1 C-0.67 0.67 -0.34 0.34 0 0 Z " fill="#B5B1B4" transform="translate(58,95)"/>
<path d="M0 0 C0.33 0.66 0.66 1.32 1 2 C-0.76227632 5.61730402 -2.64326421 7.80075931 -6 10 C-5.6875 8.125 -5.6875 8.125 -5 6 C-4.01 5.34 -3.02 4.68 -2 4 C-0.80767387 1.94996045 -0.80767387 1.94996045 0 0 Z " fill="#D4D4D2" transform="translate(29,80)"/>
<path d="M0 0 C1.98 0.495 1.98 0.495 4 1 C3.67 1.99 3.34 2.98 3 4 C1.68 4 0.36 4 -1 4 C-0.67 2.68 -0.34 1.36 0 0 Z " fill="#D5D5B9" transform="translate(3,83)"/>
<path d="M0 0 C1.32 0 2.64 0 4 0 C4 0.99 4 1.98 4 3 C2.68 2.67 1.36 2.34 0 2 C0 1.34 0 0.68 0 0 Z " fill="#9C9C93" transform="translate(2,92)"/>
<path d="M0 0 C0.99 0 1.98 0 3 0 C3 0.66 3 1.32 3 2 C2.01 2 1.02 2 0 2 C0 1.34 0 0.68 0 0 Z " fill="#D8D8C6" transform="translate(7,91)"/>
</svg>
